<svg width="16" height="16" viewBox="0 0 16 16" fill="none" xmlns="http://www.w3.org/2000/svg">
<path d="M7.28809 8.06445C7.28809 7.94141 7.2998 7.83154 7.32324 7.73486C7.34961 7.63818 7.3877 7.55176 7.4375 7.47559C7.4873 7.39941 7.55176 7.33057 7.63086 7.26904C7.71289 7.20459 7.80811 7.146 7.9165 7.09326L9.07666 6.53516V5.59912H6.91895V6.41211H6.01807V5.59912C6.01807 5.47607 6.0415 5.36035 6.08838 5.25195C6.13525 5.14062 6.19971 5.04541 6.28174 4.96631C6.36377 4.88428 6.45898 4.81982 6.56738 4.77295C6.67871 4.72314 6.7959 4.69824 6.91895 4.69824H9.07666C9.19971 4.69824 9.31543 4.72314 9.42383 4.77295C9.53516 4.81982 9.63184 4.88428 9.71387 4.96631C9.7959 5.04541 9.86035 5.14062 9.90723 5.25195C9.9541 5.36035 9.97754 5.47607 9.97754 5.59912V6.37256C9.97754 6.49561 9.96582 6.60547 9.94238 6.70215C9.91895 6.79883 9.88232 6.88672 9.83252 6.96582C9.78271 7.04199 9.7168 7.11084 9.63477 7.17236C9.55566 7.23389 9.46045 7.29248 9.34912 7.34814L8.18457 7.90186V8.66211H7.28809V8.06445ZM7.10791 9.68604H8.42188V11H7.10791V9.68604Z" fill="#7D6FF6"/>
<circle cx="8" cy="8" r="7.5" stroke="white"/>
</svg>
