<svg width="22" height="23" viewBox="0 0 22 23" fill="none" xmlns="http://www.w3.org/2000/svg">
<path d="M14.2706 17.9615V18.7692C14.2706 19.6261 13.9261 20.4478 13.3128 21.0537C12.6996 21.6596 11.8679 22 11.0006 22C10.1334 22 9.30164 21.6596 8.6884 21.0537C8.07517 20.4478 7.73066 19.6261 7.73066 18.7692V17.9615M19.7723 16.3174C18.4602 14.7308 17.5339 13.9231 17.5339 9.54892C17.5339 5.54327 15.4636 4.11618 13.7596 3.42308C13.5333 3.3312 13.3202 3.12019 13.2513 2.8905C12.9524 1.88543 12.1144 1 11.0006 1C9.88678 1 9.04835 1.88594 8.75252 2.89151C8.68354 3.12373 8.47048 3.3312 8.24414 3.42308C6.53815 4.11719 4.4699 5.53923 4.4699 9.54892C4.46734 13.9231 3.54103 14.7308 2.22896 16.3174C1.68533 16.9746 2.16151 17.9615 3.11236 17.9615H18.894C19.8397 17.9615 20.3128 16.9716 19.7723 16.3174Z" stroke="white" stroke-width="2" stroke-linecap="round" stroke-linejoin="round"/>
</svg>
