<svg width="21" height="23" viewBox="0 0 21 23" fill="none" xmlns="http://www.w3.org/2000/svg">
    <path
        d="M19.1584 2.32072L17.3165 0.478856C17.2626 0.424948 17.1908 0.402487 17.1189 0.411471C17.047 0.420456 16.9796 0.465379 16.9437 0.528272L15.0434 4.27039C14.9895 4.36473 15.0075 4.47704 15.0839 4.55341C15.1288 4.59833 15.1917 4.6208 15.2501 4.6208C15.2905 4.6208 15.3309 4.61181 15.3669 4.58935L19.1045 2.69358C19.1674 2.65764 19.2123 2.59475 19.2213 2.51838C19.2348 2.4465 19.2078 2.37463 19.1584 2.32072ZM5.36691 4.27489L3.46665 0.532764C3.43071 0.469872 3.36782 0.424948 3.29145 0.415964C3.21957 0.406979 3.1432 0.429441 3.09379 0.483349L1.25193 2.32521C1.19802 2.37912 1.17556 2.45099 1.18454 2.52287C1.19353 2.59475 1.23845 2.66213 1.30134 2.69807L5.04347 4.59833C5.0794 4.6208 5.11984 4.62978 5.16027 4.62978C5.22316 4.62978 5.28156 4.60732 5.32648 4.5624C5.40285 4.48153 5.41633 4.36473 5.36691 4.27489ZM11.6876 22.6935L10.3849 18.7043C10.3759 18.6639 10.3534 18.6279 10.3265 18.601C10.2815 18.556 10.2231 18.5336 10.1602 18.5336C10.0524 18.5336 9.96258 18.6055 9.93114 18.7088L8.62836 22.698C8.61039 22.7699 8.62386 22.8462 8.66879 22.9046C8.71371 22.963 8.7811 22.999 8.85747 22.999H11.4585C11.5304 22.999 11.6023 22.963 11.6472 22.9046C11.6966 22.8417 11.7101 22.7654 11.6876 22.6935Z"
        fill="url(#paint0_linear_5204_1756)" />
    <path
        d="M10.0119 17.1147L4.26174 19.316C3.99669 19.4148 3.71817 19.2126 3.73165 18.9296L4.04611 12.7796C4.0506 12.6853 4.01916 12.5909 3.96076 12.5145L0.0883562 7.72571C-0.0913375 7.50558 0.0164787 7.17764 0.290512 7.10127L6.23837 5.502C6.33271 5.47504 6.41358 5.41664 6.46299 5.33578L9.82326 0.178571C9.976 -0.0595235 10.3264 -0.0595235 10.4791 0.178571L13.8394 5.34027C13.8933 5.42113 13.9742 5.47954 14.064 5.50649L20.0119 7.10576C20.2859 7.17764 20.3937 7.51007 20.2141 7.7302L16.3461 12.519C16.2877 12.5954 16.2563 12.6897 16.2608 12.7841L16.5753 18.9341C16.5887 19.2171 16.3102 19.4193 16.0452 19.3204L10.295 17.1192C10.2006 17.0833 10.1018 17.0833 10.0119 17.1147Z"
        fill="#7D6FF6" />
    <defs>
        <linearGradient id="paint0_linear_5204_1756" x1="41.4571" y1="-39.0694" x2="-13.1698" y2="34.4993"
            gradientUnits="userSpaceOnUse">
            <stop stop-color="#7D6FF6" />
            <stop offset="1" stop-color="#58E1D9" />
        </linearGradient>
    </defs>
</svg>