<svg width="16" height="21" viewBox="0 0 16 21" fill="none" xmlns="http://www.w3.org/2000/svg">
<path d="M14.3158 17.1818H5.05263C4.58948 17.1818 4.19284 16.9947 3.86274 16.6205C3.53263 16.2464 3.36786 15.7971 3.36842 15.2727V1.90909C3.36842 1.38409 3.53348 0.934501 3.86358 0.56032C4.19369 0.186138 4.59004 -0.000634743 5.05263 1.62062e-06H10.2526C10.4772 1.62062e-06 10.6914 0.0477289 10.8952 0.143183C11.0989 0.238638 11.2778 0.373865 11.4316 0.548865L15.5158 5.17841C15.6702 5.35341 15.7895 5.55641 15.8737 5.78741C15.9579 6.01841 16 6.26086 16 6.51477V15.2727C16 15.7977 15.8349 16.2473 15.5048 16.6215C15.1747 16.9957 14.7784 17.1825 14.3158 17.1818ZM14.3158 6.68182L10.1053 1.90909V5.25C10.1053 5.64773 10.2282 5.98596 10.4741 6.26468C10.72 6.54341 11.0181 6.68245 11.3684 6.68182H14.3158ZM1.68421 21C1.22105 21 0.824422 20.8129 0.494317 20.4387C0.164212 20.0645 -0.000559974 19.6153 1.42972e-06 19.0909V6.68182C1.42972e-06 6.41136 0.0808436 6.1845 0.242528 6.00123C0.404212 5.81796 0.604072 5.72664 0.842107 5.72727C1.0807 5.72727 1.28084 5.81891 1.44253 6.00218C1.60421 6.18545 1.68477 6.412 1.68421 6.68182V19.0909H10.1053C10.3439 19.0909 10.544 19.1825 10.7057 19.3658C10.8674 19.5491 10.9479 19.7756 10.9474 20.0455C10.9474 20.3159 10.8665 20.5428 10.7048 20.726C10.5432 20.9093 10.3433 21.0006 10.1053 21H1.68421Z" fill="white"/>
</svg>
