<svg width="107" height="75" viewBox="0 0 107 75" fill="none" xmlns="http://www.w3.org/2000/svg">
<path d="M105.952 46.5741L91.0621 31.5387C93.8373 28.2028 95.5099 23.9111 95.5099 19.2248C95.5099 8.60734 86.9338 0 76.3549 0C65.776 0 57.2 8.60734 57.2 19.2248C57.2 29.8423 65.776 38.4496 76.3549 38.4496C81.1613 38.4496 85.5516 36.6686 88.9152 33.7326L103.784 48.7495C104.383 49.3502 105.353 49.3502 105.952 48.7495C106.549 48.1489 106.549 47.1754 105.952 46.5741H105.952ZM76.3549 35.399C67.4548 35.399 60.2395 28.1574 60.2395 19.2248C60.2395 10.2922 67.4548 3.05059 76.3549 3.05059C85.2551 3.05059 92.4704 10.2922 92.4704 19.2248C92.4704 28.1574 85.2551 35.399 76.3549 35.399Z" fill="white"/>
<circle cx="75.8" cy="18.6001" r="9" fill="white"/>
<path d="M10.0485 8.75147C9.57985 8.28284 8.82005 8.28284 8.35142 8.75147L0.714667 16.3882C0.246038 16.8569 0.246038 17.6167 0.714667 18.0853C1.1833 18.5539 1.94309 18.5539 2.41172 18.0853L9.19995 11.2971L15.9882 18.0853C16.4568 18.5539 17.2166 18.5539 17.6852 18.0853C18.1539 17.6166 18.1539 16.8569 17.6852 16.3882L10.0485 8.75147ZM10.4 66L10.3999 9.6L7.99995 9.6L7.99995 66L10.4 66Z" fill="white"/>
<path d="M95.2485 66.8485C95.7172 66.3799 95.7172 65.6201 95.2485 65.1515L87.6118 57.5147C87.1432 57.0461 86.3833 57.0461 85.9147 57.5147C85.4461 57.9833 85.4461 58.7431 85.9147 59.2118L92.7029 66L85.9147 72.7882C85.4461 73.2569 85.4461 74.0167 85.9147 74.4853C86.3833 74.9539 87.1432 74.9539 87.6118 74.4853L95.2485 66.8485ZM8 67.2H94.4V64.8H8V67.2Z" fill="white"/>
<path d="M9.19995 34.1998L15.4305 40.1998L29.444 51.5998L47.7694 37.569L63.9389 47.9075L74 22.7998" stroke="white" stroke-width="3.6"/>
<circle cx="48.7999" cy="37.2001" r="3.6" fill="white"/>
<circle cx="64.4" cy="46.8002" r="3.6" fill="white"/>
<circle cx="29.6" cy="50.3998" r="3.6" fill="white"/>
</svg>
