<svg width="146" height="102" viewBox="0 0 146 102" fill="none" xmlns="http://www.w3.org/2000/svg">
<path d="M73 102C60.1033 102 48.8808 97.8399 39.3324 89.5196C29.784 81.1993 24.1557 70.788 22.4475 58.2857H0V43.7143H22.4475C24.1508 31.2071 29.7791 20.7934 39.3324 12.4731C48.8857 4.15286 60.1082 -0.00485289 73 4.25071e-06C85.8967 4.25071e-06 97.1192 4.16015 106.668 12.4804C116.216 20.8007 121.844 31.212 123.552 43.7143H146V58.2857H123.552C121.849 70.7929 116.221 81.2066 106.668 89.5269C97.1143 97.8471 85.8918 102.005 73 102ZM51.1 76.5H94.9V40.0714H87.6V33.5143C87.6 29.2643 86.2008 25.6506 83.4025 22.6731C80.6042 19.6957 77.1367 18.2094 73 18.2143C68.985 18.2143 65.5467 19.6423 62.6851 22.4983C59.8235 25.3543 58.3951 28.7834 58.4 32.7857V40.0714H51.1V76.5ZM73 63.75C71.4183 63.75 70.1116 63.2327 69.0799 62.1981C68.0482 61.1636 67.5299 59.8594 67.525 58.2857C67.525 56.7071 68.0433 55.403 69.0799 54.3733C70.1165 53.3436 71.4232 52.8263 73 52.8214C74.5817 52.8214 75.8884 53.3387 76.9201 54.3733C77.9518 55.4079 78.4701 56.712 78.475 58.2857C78.475 59.8643 77.9567 61.1684 76.9201 62.1981C75.8835 63.2279 74.5768 63.7451 73 63.75ZM65.7 40.0714V32.7857C65.7 30.7214 66.4008 28.9899 67.8024 27.591C69.204 26.1921 70.9365 25.4951 73 25.5C75.0683 25.5 76.8033 26.1994 78.2049 27.5983C79.6065 28.9971 80.3049 30.7263 80.3 32.7857V40.0714H65.7Z" fill="white"/>
</svg>
