<svg width="26" height="26" viewBox="0 0 26 26" fill="none" xmlns="http://www.w3.org/2000/svg">
<circle cx="13.2568" cy="13.2568" r="12.5" transform="rotate(-180 13.2568 13.2568)" fill="#34384C"/>
<g filter="url(#filter0_f_2151_5241)">
<path d="M9.49971 13.1581C9.58738 13.3206 9.75408 13.4219 9.93538 13.4219L12.7586 13.4219L12.7586 18.9964C12.7586 19.2779 12.9818 19.5063 13.2567 19.5063C13.5317 19.5063 13.7548 19.2779 13.7548 18.9964L13.7548 13.4219L16.578 13.4219C16.76 13.4219 16.9267 13.3206 17.0137 13.1581C17.102 12.9956 17.0961 12.7971 16.9998 12.64L13.6784 7.24431C13.5868 7.09609 13.4281 7.00635 13.2567 7.00635C13.0854 7.00635 12.9266 7.09609 12.835 7.24431L9.51366 12.64C9.46319 12.723 9.43728 12.8175 9.43728 12.912C9.43728 12.9963 9.45854 13.0813 9.49971 13.1581Z" fill="#46F243"/>
</g>
<path d="M9.49971 13.1581C9.58738 13.3206 9.75408 13.4219 9.93538 13.4219L12.7586 13.4219L12.7586 18.9964C12.7586 19.2779 12.9818 19.5063 13.2567 19.5063C13.5317 19.5063 13.7548 19.2779 13.7548 18.9964L13.7548 13.4219L16.578 13.4219C16.76 13.4219 16.9267 13.3206 17.0137 13.1581C17.102 12.9956 17.0961 12.7971 16.9998 12.64L13.6784 7.24431C13.5868 7.09609 13.4281 7.00635 13.2567 7.00635C13.0854 7.00635 12.9266 7.09609 12.835 7.24431L9.51366 12.64C9.46319 12.723 9.43728 12.8175 9.43728 12.912C9.43728 12.9963 9.45854 13.0813 9.49971 13.1581Z" fill="#46F243"/>
<defs>
<filter id="filter0_f_2151_5241" x="1.71593" y="1.71617" width="23.0811" height="23.0808" filterUnits="userSpaceOnUse" color-interpolation-filters="sRGB">
<feFlood flood-opacity="0" result="BackgroundImageFix"/>
<feBlend mode="normal" in="SourceGraphic" in2="BackgroundImageFix" result="shape"/>
<feGaussianBlur stdDeviation="1.60358" result="effect1_foregroundBlur_2151_5241"/>
</filter>
</defs>
</svg>
