<svg width="108" height="101" viewBox="0 0 108 101" fill="none" xmlns="http://www.w3.org/2000/svg">
<path d="M68.4688 93.625C72.4383 93.625 75.6562 90.407 75.6562 86.4375C75.6562 82.468 72.4383 79.25 68.4688 79.25C64.4992 79.25 61.2812 82.468 61.2812 86.4375C61.2812 90.407 64.4992 93.625 68.4688 93.625Z" fill="white"/>
<path d="M68.4688 21.75C72.4383 21.75 75.6562 18.532 75.6562 14.5625C75.6562 10.593 72.4383 7.375 68.4688 7.375C64.4992 7.375 61.2812 10.593 61.2812 14.5625C61.2812 18.532 64.4992 21.75 68.4688 21.75Z" fill="white"/>
<path d="M7.375 57.6875C11.3445 57.6875 14.5625 54.4695 14.5625 50.5C14.5625 46.5305 11.3445 43.3125 7.375 43.3125C3.40545 43.3125 0.1875 46.5305 0.1875 50.5C0.1875 54.4695 3.40545 57.6875 7.375 57.6875Z" fill="white"/>
<path d="M93.625 36.125C90.4467 36.1345 87.3614 37.198 84.8524 39.149C82.3434 41.1 80.5525 43.8283 79.7603 46.9063H64.3647C63.8557 44.8796 62.9073 42.9896 61.5867 41.3702C60.2661 39.7508 58.6055 38.4416 56.7227 37.5353C54.8398 36.629 52.7807 36.1478 50.6912 36.1258C48.6017 36.1038 46.5329 36.5415 44.6314 37.408L33.2141 23.1408C35.0921 20.6744 36.1142 17.6625 36.125 14.5625C36.125 11.7194 35.2819 8.94014 33.7024 6.57618C32.1228 4.21223 29.8778 2.36975 27.2511 1.28174C24.6244 0.193728 21.7341 -0.0909445 18.9456 0.463718C16.1571 1.01838 13.5957 2.38747 11.5853 4.39785C9.57497 6.40823 8.20588 8.96961 7.65122 11.7581C7.09656 14.5466 7.38123 17.4369 8.46924 20.0636C9.55725 22.6903 11.3997 24.9353 13.7637 26.5149C16.1276 28.0944 18.9069 28.9375 21.75 28.9375C23.7764 28.9328 25.7785 28.4954 27.6222 27.6545L39.0359 41.9217C37.1493 44.3834 36.1267 47.3985 36.1267 50.5C36.1267 53.6016 37.1493 56.6166 39.0359 59.0783L27.6222 73.3455C25.7785 72.5046 23.7764 72.0672 21.75 72.0625C18.9069 72.0625 16.1276 72.9056 13.7637 74.4851C11.3997 76.0647 9.55725 78.3097 8.46924 80.9364C7.38123 83.5631 7.09656 86.4535 7.65122 89.2419C8.20588 92.0304 9.57497 94.5918 11.5853 96.6022C13.5957 98.6125 16.1571 99.9816 18.9456 100.536C21.7341 101.091 24.6244 100.806 27.2511 99.7183C29.8778 98.6303 32.1228 96.7878 33.7024 94.4238C35.2819 92.0599 36.125 89.2806 36.125 86.4375C36.1144 83.3374 35.0924 80.3255 33.2141 77.8592L44.6278 63.592C46.5295 64.4591 48.5986 64.8973 50.6886 64.8757C52.7785 64.854 54.8381 64.373 56.7214 63.4666C58.6047 62.5603 60.2656 61.2509 61.5865 59.6311C62.9074 58.0113 63.8558 56.1209 64.3647 54.0938H79.7603C80.4371 56.6904 81.8283 59.0454 83.7762 60.8911C85.724 62.7368 88.1504 63.9994 90.7797 64.5354C93.4091 65.0715 96.136 64.8596 98.651 63.9237C101.166 62.9878 103.368 61.3655 105.007 59.241C106.647 57.1165 107.657 54.5749 107.925 51.9048C108.192 49.2347 107.706 46.5432 106.52 44.1358C105.335 41.7284 103.498 39.7016 101.219 38.2856C98.9392 36.8695 96.3084 36.121 93.625 36.125ZM14.5625 14.5625C14.5625 13.141 14.984 11.7513 15.7738 10.5693C16.5636 9.38737 17.6861 8.46613 18.9995 7.92212C20.3128 7.37812 21.758 7.23578 23.1522 7.51311C24.5465 7.79044 25.8271 8.47499 26.8323 9.48018C27.8375 10.4854 28.5221 11.7661 28.7994 13.1603C29.0767 14.5545 28.9344 15.9997 28.3904 17.313C27.8464 18.6264 26.9251 19.7489 25.7432 20.5387C24.5612 21.3285 23.1716 21.75 21.75 21.75C19.8443 21.7481 18.0173 20.9902 16.6698 19.6427C15.3223 18.2952 14.5644 16.4682 14.5625 14.5625ZM21.75 93.625C20.3285 93.625 18.9388 93.2035 17.7568 92.4137C16.5749 91.6239 15.6536 90.5014 15.1096 89.188C14.5656 87.8747 14.4233 86.4295 14.7006 85.0353C14.9779 83.6411 15.6625 82.3604 16.6677 81.3552C17.6729 80.35 18.9536 79.6654 20.3478 79.3881C21.742 79.1108 23.1872 79.2531 24.5005 79.7971C25.8139 80.3411 26.9364 81.2624 27.7262 82.4443C28.516 83.6263 28.9375 85.016 28.9375 86.4375C28.9356 88.3432 28.1777 90.1702 26.8302 91.5177C25.4827 92.8652 23.6557 93.6231 21.75 93.625ZM50.5 57.6875C49.0784 57.6875 47.6888 57.266 46.5068 56.4762C45.3249 55.6864 44.4036 54.5639 43.8596 53.2505C43.3156 51.9372 43.1733 50.492 43.4506 49.0978C43.7279 47.7036 44.4125 46.4229 45.4177 45.4177C46.4229 44.4125 47.7036 43.7279 49.0978 43.4506C50.492 43.1733 51.9372 43.3156 53.2505 43.8596C54.5639 44.4036 55.6864 45.3249 56.4762 46.5068C57.266 47.6888 57.6875 49.0785 57.6875 50.5C57.6856 52.4057 56.9277 54.2327 55.5802 55.5802C54.2327 56.9277 52.4057 57.6856 50.5 57.6875ZM93.625 57.6875C92.2034 57.6875 90.8138 57.266 89.6318 56.4762C88.4499 55.6864 87.5286 54.5639 86.9846 53.2505C86.4406 51.9372 86.2983 50.492 86.5756 49.0978C86.8529 47.7036 87.5375 46.4229 88.5427 45.4177C89.5479 44.4125 90.8286 43.7279 92.2228 43.4506C93.617 43.1733 95.0622 43.3156 96.3755 43.8596C97.6889 44.4036 98.8114 45.3249 99.6012 46.5068C100.391 47.6888 100.812 49.0785 100.812 50.5C100.811 52.4057 100.053 54.2327 98.7052 55.5802C97.3577 56.9277 95.5307 57.6856 93.625 57.6875Z" fill="white"/>
</svg>
