<svg width="119" height="120" viewBox="0 0 119 120" fill="none" xmlns="http://www.w3.org/2000/svg">
<path d="M107.159 28.43C115.248 40.8097 118.205 55.8498 115.406 70.3704C112.607 84.8911 104.271 97.7541 92.16 106.24C80.0492 114.726 65.113 118.17 50.5092 115.843C35.9054 113.517 22.7786 105.602 13.9042 93.7734C5.02968 81.9443 1.10308 67.1277 2.95451 52.4561C4.80594 37.7845 12.2903 24.4078 23.8252 15.1542C35.3601 5.90062 50.0415 1.49535 64.7655 2.86976C79.4894 4.24418 93.1019 11.2906 102.725 22.5192" stroke="white" stroke-width="5" stroke-linecap="round" stroke-linejoin="round"/>
<path d="M87.8078 48.3213C90.6546 55.51 90.6612 63.5123 87.8262 70.7057C84.9913 77.8991 79.527 83.7453 72.5412 87.0589C65.5554 90.3726 57.5709 90.9058 50.2065 88.5504C42.8421 86.195 36.649 81.1272 32.8828 74.3746C29.1166 67.622 28.0591 59.6899 29.9248 52.1865C31.7905 44.6831 36.4397 38.1699 42.9298 33.9675C49.4199 29.7651 57.2652 28.1879 64.8752 29.5558C72.4851 30.9236 79.2901 35.1341 83.9105 41.3336" stroke="white" stroke-width="5" stroke-linecap="round" stroke-linejoin="round"/>
<path d="M102.722 22.522L59.5 65.7443L47.0117 53.256" stroke="white" stroke-width="5" stroke-linecap="round" stroke-linejoin="round"/>
</svg>
